<svg xmlns="http://www.w3.org/2000/svg" width="79.927" height="86.098" viewBox="0 0 79.927 86.098"><defs><style>.a{fill:#86007d;}.a,.b{stroke:#707070;}.b{fill:#fff;}</style></defs><g transform="translate(79.427 85.598) rotate(180)"><g transform="translate(0)"><g transform="translate(0)"><path class="a" d="M38,0h0C58.989,0,76,18.345,76,40.973h0C76,63.6,58.989,81.946,38,81.946h0C17.015,81.946,0,63.6,0,40.973H0C0,18.345,17.015,0,38,0Z" transform="translate(1.462 1.576)"/><path class="a" d="M39.464,85.1C17.7,85.1,0,66.011,0,42.549S17.7,0,39.464,0,78.927,19.087,78.927,42.549,61.224,85.1,39.464,85.1Zm0-81.946c-20.148,0-36.54,17.674-36.54,39.4s16.392,39.4,36.54,39.4S76,64.272,76,42.549,59.612,3.152,39.464,3.152Z"/></g><path class="b" d="M18.57,40.974a1.406,1.406,0,0,1-1.033-.462L.731,22.393a2.848,2.848,0,0,1,0-3.811L17.537.462a1.386,1.386,0,0,1,2.067,0,1.662,1.662,0,0,1,0,2.228L3.1,20.487,19.6,38.284a1.662,1.662,0,0,1,0,2.228A1.406,1.406,0,0,1,18.57,40.974Z" transform="translate(27.772 22.061)"/></g></g></svg>