<svg xmlns="http://www.w3.org/2000/svg" width="247.687" height="67.202" viewBox="0 0 247.687 67.202"><defs><style>.a,.b,.c,.d{fill:#f7c3f3;}.a{font-size:40px;}.a,.b{font-family:Arial-BoldMT, Arial;font-weight:700;}.b{font-size:39px;}.d{fill-rule:evenodd;}</style></defs><g transform="translate(-11.321 -4.688)"><text class="a" transform="translate(87.279 51.442)"><tspan x="0" y="0">Vale</tspan></text><text class="b" transform="translate(176.008 52.961)"><tspan x="0" y="0">PCD</tspan></text><g transform="translate(11.321 4.688)"><g transform="translate(0 0)"><path class="c" d="M-45.956,138.068A54.665,54.665,0,0,1-41.3,131.9a97.089,97.089,0,0,1,8.5-8.376c.63.819,1.2,1.7,1.826,2.519a83.083,83.083,0,0,0-8.124,8.187c-.945,1.134-1.826,2.267-2.708,3.464a12.588,12.588,0,0,1-3.086.441C-45.263,138.131-45.641,138.068-45.956,138.068Zm-3.464-.882a48.883,48.883,0,0,1,5.668-7.746c2.9-2.96,5.92-5.794,9.068-8.439.567.819,1.2,1.637,1.763,2.519a88.95,88.95,0,0,0-8.5,8.376,63.368,63.368,0,0,0-4.66,6.172,11.427,11.427,0,0,1-3.338-.882Zm-2.9-1.763a33.356,33.356,0,0,1,6.046-8.439,114.666,114.666,0,0,1,10.013-8.439c.567.819,1.071,1.637,1.637,2.519a115.021,115.021,0,0,0-9.068,8.439,45.25,45.25,0,0,0-5.668,7.746,11.693,11.693,0,0,1-2.96-1.826Zm-2.33-2.645A23.465,23.465,0,0,1-49.1,124.4c3.023-2.9,6.927-5.416,11.084-8.376.567.819,1.134,1.7,1.7,2.519a114.663,114.663,0,0,0-10.013,8.439,34.51,34.51,0,0,0-6.046,8.439,13.215,13.215,0,0,1-2.267-2.645Zm-1.26-2.645a16.883,16.883,0,0,1-.441-1.7,17.011,17.011,0,0,1,4.219-6.612c3.338-3.086,7.746-5.6,12.091-8.376.693.882,1.385,1.7,1.952,2.582-4.219,3.023-8.061,5.542-11.084,8.376a23.187,23.187,0,0,0-5.542,8.376,16.88,16.88,0,0,1-1.2-2.645Zm2.771-11.587c2.141-2.141,6.361-4.975,10.895-7.746q1.228,1.417,2.267,2.645c-4.408,2.771-8.754,5.29-12.091,8.376a17.011,17.011,0,0,0-4.219,6.612,11.476,11.476,0,0,1,3.149-9.887Z" transform="translate(56.427 -70.937)"/><path class="d" d="M-40.29,91.961a16.286,16.286,0,0,1,3.464,10.391c0,5.038-1.763,9.32-4.345,11.273-.5.378-1.008.693-1.511,1.071a13.031,13.031,0,0,0,2.708-.63c2.33-.693,5.857-3.527,7.683-5.416a36.57,36.57,0,0,0,3.653-4.6,70.5,70.5,0,0,0,7.683-16.563,148.8,148.8,0,0,0-4.03-15.114,84.283,84.283,0,0,0-4.849-12.154,47.12,47.12,0,0,0-5.353-8.691c-2.015-2.393-4.219-4.03-6.8-4.03-3.086,0-5.92,2.141-7.935,5.542A27.077,27.077,0,0,0-53.2,66.456,29.391,29.391,0,0,0-52,74.894a20.427,20.427,0,0,0,2.33,5.227,48.888,48.888,0,0,0,4.66,6.109c1.574,1.889,3.212,3.716,4.723,5.731" transform="translate(55.232 -47.5)"/></g><g transform="translate(35.946 0.008)"><path class="c" d="M33.388,95.231a54.665,54.665,0,0,0-4.66-6.172,97.085,97.085,0,0,0-8.5-8.376c-.63.819-1.2,1.7-1.826,2.519a83.078,83.078,0,0,1,8.124,8.187c.945,1.134,1.826,2.267,2.708,3.464a12.588,12.588,0,0,0,3.086.441C32.7,95.294,33.01,95.231,33.388,95.231Zm3.4-.882A48.884,48.884,0,0,0,31.121,86.6c-2.9-2.96-5.92-5.794-9.068-8.439-.567.819-1.2,1.637-1.763,2.519a88.949,88.949,0,0,1,8.5,8.376,63.37,63.37,0,0,1,4.66,6.172A12.453,12.453,0,0,0,36.789,94.35Zm2.96-1.763A33.357,33.357,0,0,0,33.7,84.148,114.664,114.664,0,0,0,23.69,75.709c-.567.819-1.071,1.637-1.637,2.519a115.021,115.021,0,0,1,9.068,8.439,45.251,45.251,0,0,1,5.668,7.746A12.916,12.916,0,0,0,39.749,92.586Zm2.267-2.645a23.465,23.465,0,0,0-5.542-8.376c-3.023-2.9-6.927-5.416-11.084-8.376-.567.819-1.134,1.7-1.7,2.519A114.665,114.665,0,0,1,33.7,84.148a34.511,34.511,0,0,1,6.046,8.439A11.455,11.455,0,0,0,42.016,89.941Zm1.26-2.645a16.884,16.884,0,0,0,.441-1.7A17.011,17.011,0,0,0,39.5,78.984c-3.338-3.086-7.746-5.6-12.091-8.376-.693.882-1.385,1.7-1.952,2.582,4.156,2.96,8,5.479,11.021,8.376a23.187,23.187,0,0,1,5.542,8.376A10.212,10.212,0,0,0,43.275,87.3ZM40.5,75.646C38.363,73.5,34.144,70.671,29.61,67.9q-1.228,1.417-2.267,2.645c4.408,2.771,8.754,5.29,12.091,8.376a17.012,17.012,0,0,1,4.219,6.612A11.408,11.408,0,0,0,40.5,75.646Z" transform="translate(-9.583 -28.1)"/><path class="d" d="M23.733,49.161A16.286,16.286,0,0,0,20.27,59.551c0,5.038,1.763,9.32,4.345,11.273.5.378,1.008.693,1.511,1.071a13.031,13.031,0,0,1-2.708-.63c-2.33-.693-5.857-3.527-7.683-5.416a36.569,36.569,0,0,1-3.653-4.6A70.5,70.5,0,0,1,4.4,44.689,148.8,148.8,0,0,1,8.43,29.575,84.283,84.283,0,0,1,13.28,17.421,47.121,47.121,0,0,1,18.632,8.73c2.015-2.393,4.219-4.03,6.8-4.03,3.086,0,5.92,2.141,7.935,5.542a27.077,27.077,0,0,1,3.275,13.414,29.391,29.391,0,0,1-1.2,8.439,20.426,20.426,0,0,1-2.33,5.227,48.887,48.887,0,0,1-4.66,6.109c-1.574,1.889-3.275,3.716-4.723,5.731" transform="translate(-4.4 -4.7)"/></g></g></g></svg>