<svg xmlns="http://www.w3.org/2000/svg" width="39.225" height="39.225" viewBox="0 0 39.225 39.225"><defs><style>.a{fill:#86007d;}</style></defs><path class="a" d="M150.485,200.094h3.092l-1.546-4.638Z" transform="translate(-138.956 -180.482)"/><path class="a" d="M366.782,287.655h1.677l-.67-2.684Z" transform="translate(-338.682 -263.139)"/><path class="a" d="M37.591,0H1.634A1.634,1.634,0,0,0,0,1.634V37.591a1.634,1.634,0,0,0,1.634,1.634H37.591a1.634,1.634,0,0,0,1.634-1.634V1.634A1.634,1.634,0,0,0,37.591,0ZM20.129,30.97a1.634,1.634,0,0,1-2.066-1.035l-2.352-7.054H10.439L8.087,29.935a1.633,1.633,0,1,1-3.1-1.033L11.526,9.29a1.633,1.633,0,0,1,3.1,0L21.162,28.9A1.634,1.634,0,0,1,20.129,30.97ZM33.083,31A1.635,1.635,0,0,1,31.1,29.816l-.508-2.032h-3.72l-.829,2.208a1.635,1.635,0,0,1-1.53,1.061,1.661,1.661,0,0,1-.575-.1,1.636,1.636,0,0,1-.956-2.1l4.9-13.075a1.662,1.662,0,0,1,1.625-1.059A1.635,1.635,0,0,1,31,15.947l3.269,13.075A1.635,1.635,0,0,1,33.083,31Zm.76-21.677-3.267,3.267a1.619,1.619,0,0,1-.533.355,1.611,1.611,0,0,1-1.249,0,1.619,1.619,0,0,1-.533-.355L24.995,9.327a1.634,1.634,0,0,1,2.311-2.311l.479.479V6.538a1.634,1.634,0,1,1,3.269,0V7.5l.479-.479a1.634,1.634,0,0,1,2.311,2.311Z"/></svg>