<svg xmlns="http://www.w3.org/2000/svg" width="78.927" height="85.1" viewBox="0 0 78.927 85.1"><defs><style>.a{fill:#460542;}.b{fill:#f7c3f3;}</style></defs><path class="a" d="M39,1h0C59.989,1,77,19.345,77,41.974h0C77,64.6,59.989,82.948,39,82.948h0C18.015,82.948,1,64.6,1,41.974H1C1,19.345,18.015,1,39,1Z" transform="translate(0.462 0.576)"/><path class="a" d="M39.464,85.1C17.7,85.1,0,66.012,0,42.55S17.7,0,39.464,0,78.927,19.088,78.927,42.55,61.224,85.1,39.464,85.1Zm0-81.948c-20.148,0-36.54,17.674-36.54,39.4s16.392,39.4,36.54,39.4S76,64.274,76,42.55,59.612,3.152,39.464,3.152Z"/><path class="b" d="M37.571,54.974a1.406,1.406,0,0,1-1.033-.462L19.732,36.392a2.848,2.848,0,0,1,0-3.811l16.806-18.12a1.386,1.386,0,0,1,2.067,0,1.662,1.662,0,0,1,0,2.228L22.1,34.487,38.6,52.284a1.662,1.662,0,0,1,0,2.228A1.406,1.406,0,0,1,37.571,54.974Z" transform="translate(8.771 8.063)"/></svg>