<svg xmlns="http://www.w3.org/2000/svg" width="39" height="40" viewBox="0 0 39 40"><defs><style>.a{fill:#f7c3f3;}</style></defs><g transform="translate(-0.5 0.386)"><path class="a" d="M150.456,200.1h3l-1-5Z" transform="translate(-138.956 -180.482)"/><path class="a" d="M367.182,287.753h1v-3Z" transform="translate(-338.682 -263.139)"/><path class="a" d="M37.5-.386H1.5c-.9,0-1,1.1-1,2v36c0,.9.1,2,1,2h36a2.328,2.328,0,0,0,2-2v-36A2.328,2.328,0,0,0,37.5-.386Zm-17,31a5.835,5.835,0,0,1-1,0c-.685,0-.773-.315-1-1l-3-7h-5l-2,7a1.543,1.543,0,0,1-2,1c-.856-.286-2.286-1.145-2-2l7-19c.221-.668,1.3-1,2-1s.778.332,1,1l7,19A1.545,1.545,0,0,1,20.5,30.614Zm13,0a1.549,1.549,0,0,1-2-1l-1-2h-4v2c-.245.655-1.34,1-2,1a4.758,4.758,0,0,1-1,0,1.548,1.548,0,0,1-1-2l5-13a2.168,2.168,0,0,1,2-1c.714.041,1.827.307,2,1l3,13A1.547,1.547,0,0,1,33.5,30.614Zm0-21-3,3c-.15.152.2-.083,0,0a4.093,4.093,0,0,1-1,0,4.093,4.093,0,0,1-1,0c-.2-.083.15.152,0,0l-4-3a2.587,2.587,0,0,1,0-3,2.587,2.587,0,0,1,3,0v0a2.328,2.328,0,0,1,2-2,2.328,2.328,0,0,1,2,2v0a1.283,1.283,0,0,1,2,0A2.587,2.587,0,0,1,33.5,9.614Z"/></g></svg>