<svg id="Componente_3_1" data-name="Componente 3 – 1" xmlns="http://www.w3.org/2000/svg" viewBox="0 0 888.15 842.56">
  <g id="Caminho_180" data-name="Caminho 180" transform="matrix(0.829, -0.559, 0.559, 0.829, -152.182, 235.418)" fill="#000000" opacity="0.31">
    <path d="M741.537,392.727c0,.906,7.35,47.851-1.928,100.022-7.893,44.383-32.475,92.352-52.234,136.453-9.748,21.758-30.485,65.617-55.958,90.115-30.27,29.11-65.366,37.1-69.818,37.343-65.32,3.485-148.969-24.929-220.7-64.431-81.166-44.7-134.2-84.487-211.577-162.01S36.474,387.942,36.474,363.858c0-143.259,338.418-179.225,553.114-115.438C689.4,278.073,741.537,325.927,741.537,392.727Z" stroke="none"/>
    <path d="M 363.6112365722656 219.0709228515625 C 342.5198669433594 219.0709228515625 321.5115966796875 219.8253784179688 301.1701354980469 221.3134155273438 C 280.6107788085938 222.8171997070313 260.5171508789063 225.0864868164063 241.4474487304688 228.05810546875 C 222.0223999023438 231.0850219726563 203.428955078125 234.877197265625 186.1835327148438 239.3294067382813 C 168.503173828125 243.8937377929688 151.9963989257813 249.2153930664063 137.1217651367188 255.1463012695313 C 105.7939453125 267.6376953125 81.38653564453125 282.873291015625 64.57720947265625 300.4300537109375 C 60.22216796875 304.9788818359375 56.33587646484375 309.7396850585938 53.02630615234375 314.5803833007813 C 49.65777587890625 319.5075073242188 46.79742431640625 324.6480102539063 44.5247802734375 329.8591918945313 C 42.20989990234375 335.1674194335938 40.44268798828125 340.6912231445313 39.27239990234375 346.2774047851563 C 38.07904052734375 351.9735107421875 37.47393798828125 357.8886108398438 37.47393798828125 363.8583374023438 C 37.47393798828125 368.6859741210938 38.097900390625 376.94384765625 41.070068359375 388.8688354492188 C 44.05157470703125 400.831298828125 48.6661376953125 413.5172119140625 54.785400390625 426.57421875 C 62.1629638671875 442.3161315917969 71.6502685546875 458.3824157714844 82.98358154296875 474.3270263671875 C 96.17803955078125 492.8897705078125 112.005859375 511.4565734863281 130.0275268554688 529.5118408203125 C 149.7545776367188 549.2757568359375 167.4993896484375 566.1854248046875 184.27587890625 581.20703125 C 201.43408203125 596.5704956054688 217.7952270507813 610.155517578125 234.29443359375 622.7384033203125 C 265.7650756835938 646.7391357421875 298.7911376953125 667.900390625 341.3790588378906 691.3522338867188 C 358.5022277832031 700.781494140625 376.1054077148438 709.4653930664063 393.69970703125 717.1626586914063 C 411.8643188476563 725.109619140625 429.9994201660156 731.994140625 447.6011352539063 737.6251220703125 C 465.9600524902344 743.498291015625 483.8188781738281 748.0311279296875 500.6816101074219 751.09765625 C 518.379638671875 754.3160400390625 535.1513061523438 755.9479370117188 550.5308837890625 755.9479370117188 C 554.2630615234375 755.9479370117188 557.9691162109375 755.8511352539063 561.546142578125 755.6602783203125 C 563.6536865234375 755.5478515625 573.466064453125 753.4989624023438 586.4298706054688 747.896728515625 C 593.820068359375 744.7032470703125 601.0191650390625 740.88720703125 607.827392578125 736.5547485351563 C 616.1087646484375 731.2848510742188 623.8124389648438 725.2424926757813 630.72412109375 718.595458984375 C 641.719482421875 708.021484375 653.058349609375 692.5916748046875 664.4255981445313 672.7347412109375 C 668.6683349609375 665.3233642578125 672.9677124023438 657.19482421875 677.204345703125 648.5750732421875 C 680.255615234375 642.366943359375 683.1976318359375 636.0810546875 686.4630737304688 628.7926635742188 C 689.79150390625 621.3635864257813 693.3311767578125 613.6632080078125 696.754150390625 606.21630859375 C 705.3436889648438 587.5296630859375 714.2257080078125 568.206787109375 721.7218627929688 549.073974609375 C 725.7639770507813 538.7571411132813 729.0470581054688 529.4227294921875 731.7588500976563 520.53759765625 C 734.810791015625 510.537841796875 737.0565795898438 501.3906860351563 738.6246337890625 492.5733947753906 C 740.5823364257813 481.5645751953125 741.9429931640625 469.9197692871094 742.6687622070313 457.96240234375 C 743.2633056640625 448.168212890625 743.4384155273438 438.0807800292969 743.189208984375 427.9801025390625 C 742.8983154296875 416.18505859375 742.050537109375 404.7181396484375 740.6693115234375 393.8978271484375 C 740.5537109375 392.9915161132813 740.5370483398438 392.8529663085938 740.5370483398438 392.7265625 C 740.5370483398438 384.4985961914063 739.7247924804688 376.4375610351563 738.122802734375 368.7677612304688 C 736.5271606445313 361.1281127929688 734.1032104492188 353.6622924804688 730.9183349609375 346.577392578125 C 727.7431640625 339.5140991210938 723.7225341796875 332.6312255859375 718.9681396484375 326.1200561523438 C 714.224853515625 319.6238403320313 708.618408203125 313.3158569335938 702.3048095703125 307.3712158203125 C 696.00390625 301.4386596679688 688.822998046875 295.7026977539063 680.9614868164063 290.3225708007813 C 673.1161499023438 284.9534912109375 664.3746948242188 279.7894897460938 654.9800415039063 274.9739379882813 C 645.6057739257813 270.1688842773438 635.3204345703125 265.5771484375 624.4096069335938 261.3262939453125 C 613.5234375 257.0851440429688 601.7118530273438 253.0654296875 589.3031616210938 249.378662109375 C 556.0184326171875 239.48974609375 519.3328857421875 231.8524169921875 480.2655029296875 226.6786499023438 C 461.2974243164063 224.166748046875 441.7636108398438 222.248291015625 422.2068786621094 220.9765625 C 402.7611389160156 219.712158203125 383.0466918945313 219.0709228515625 363.6112365722656 219.0709228515625 M 363.6112365722656 218.0709838867188 C 441.5764465332031 218.0709838867188 521.7486572265625 228.2649536132813 589.5879516601563 248.4201049804688 C 689.3953247070313 278.0729370117188 741.5370483398438 325.9266967773438 741.5370483398438 392.7265625 C 741.5370483398438 393.632568359375 748.8869018554688 440.5778503417969 739.609130859375 492.7485046386719 C 731.7164916992188 537.131103515625 707.134521484375 585.1007080078125 687.3756103515625 629.2015380859375 C 677.6272583007813 650.95947265625 656.8910522460938 694.8187866210938 631.4173583984375 719.3162841796875 C 601.1475830078125 748.4263305664063 566.051025390625 756.4213256835938 561.5994262695313 756.6588745117188 C 557.9674072265625 756.8526611328125 554.2710571289063 756.947998046875 550.5308837890625 756.947998046875 C 487.0061340332031 756.947998046875 408.6419067382813 729.5335693359375 340.8966979980469 692.2282104492188 C 259.7308959960938 647.53271484375 206.6983032226563 607.7413330078125 129.3197631835938 530.2183227539063 C 51.94122314453125 452.6954040527344 36.47393798828125 387.9420166015625 36.47393798828125 363.8583374023438 C 36.47393798828125 265.8659057617188 194.8346557617188 218.0709838867188 363.6112365722656 218.0709838867188 Z" stroke="none" fill="#707070"/>
  </g>
</svg>
