<svg xmlns="http://www.w3.org/2000/svg" width="39" height="39" viewBox="0 0 39 39"><defs><style>.a{fill:#f7c3f3;}</style></defs><g transform="translate(-0.5 -0.136)"><path class="a" d="M321.04,199.624h3l-1-4Z" transform="translate(-296.54 -180.487)"/><path class="a" d="M132.486,287.281h1v-2Z" transform="translate(-121.986 -263.144)"/><path class="a" d="M37.5.136H1.5c-.9,0-1,.1-1,1v36c0,.9.1,2,1,2h36a2.328,2.328,0,0,0,2-2v-36C39.5.234,38.4.136,37.5.136Zm-22,31a1.549,1.549,0,0,1-2-1l-1-2h-4v2c-.245.657-1.34,1-2,1a4.758,4.758,0,0,1-1,0c-.845-.319-.315-1.155,0-2l4-13a2.171,2.171,0,0,1,2-1c.716.041,1.828.305,2,1l3,13A1.545,1.545,0,0,1,15.5,31.136Zm0-20c-.32.32-.583,0-1,0s-.681.32-1,0v0a2.328,2.328,0,0,1-2,2,2.326,2.326,0,0,1-2-2v0c-.32.32-.583,0-1,0s-.681.32-1,0a1.283,1.283,0,0,1,0-2l3-4c.15-.15-.2.083,0,0a4.1,4.1,0,0,1,2,0c.2.083-.15-.15,0,0l3,4A1.285,1.285,0,0,1,15.5,11.136Zm18,20a5.835,5.835,0,0,1-1,0c-.685,0-.771-.315-1-1l-3-7h-5l-2,7a1.581,1.581,0,0,1-3-1l6-20c.222-.667,1.3-1,2-1s.778.333,1,1l7,20A1.546,1.546,0,0,1,33.5,31.136Z"/></g></svg>