<svg xmlns="http://www.w3.org/2000/svg" width="39.225" height="39.225" viewBox="0 0 39.225 39.225"><defs><style>.a{fill:#86007d;}</style></defs><path class="a" d="M321.143,200.1h3.092l-1.546-4.638Z" transform="translate(-296.54 -180.487)"/><path class="a" d="M132.107,287.661h1.677l-.67-2.684Z" transform="translate(-121.986 -263.144)"/><path class="a" d="M37.591,0H1.634A1.634,1.634,0,0,0,0,1.634V37.591a1.633,1.633,0,0,0,1.634,1.634H37.591a1.634,1.634,0,0,0,1.634-1.634V1.634A1.635,1.635,0,0,0,37.591,0ZM15.1,31a1.634,1.634,0,0,1-1.981-1.188l-.508-2.032H8.9l-.829,2.208a1.635,1.635,0,1,1-3.061-1.147l4.9-13.075a1.662,1.662,0,0,1,1.623-1.057,1.63,1.63,0,0,1,1.492,1.236l3.269,13.075A1.63,1.63,0,0,1,15.1,31Zm.76-20.042a1.634,1.634,0,0,1-2.311,0l-.479-.479v.958a1.634,1.634,0,1,1-3.269,0v-.958l-.479.479A1.634,1.634,0,0,1,7.016,8.651l3.267-3.267a1.636,1.636,0,0,1,2.313,0l3.269,3.267A1.635,1.635,0,0,1,15.865,10.962ZM33.2,30.97a1.631,1.631,0,0,1-2.067-1.033l-2.352-7.056H23.514l-2.352,7.056a1.634,1.634,0,0,1-3.1-1.035L24.6,9.29a1.634,1.634,0,0,1,3.1,0L34.237,28.9A1.635,1.635,0,0,1,33.2,30.97Z"/></svg>