<svg xmlns="http://www.w3.org/2000/svg" viewBox="0 0 106.27 68"><defs><style>.a{fill:#86007d;}</style></defs><path class="a" d="M484.331,446.044c-1.622-1.169-10.265-9.3-10.4-23.358-.08-9.271,5.372-18.458,11.594-18.458s15.61,20.323,17.1,29.511c.16,1,.346,4.093.665,1.81s5.079-27.7,16.274-31.32l.372-.028H577.51l.532,67.958H520.416a2.327,2.327,0,0,1-.878,0c-12.95-5.707-16.115-19.126-16.274-22.272-.16-.306-.479,1.587-.665,2.255-.984,3.953-9.095,15.9-11.355,17.428a16.012,16.012,0,0,1-8.855,2.589c-3.085-.139-11.568-5.345-10.531-12.584S479.863,447.38,484.331,446.044Z" transform="translate(-471.772 -404.2)"/></svg>